<svg width="14" height="10" viewBox="0 0 14 10" fill="none" xmlns="http://www.w3.org/2000/svg">
<path d="M12.1103 0.241699H1.80178C0.935724 0.241699 0.233887 0.943536 0.233887 1.80936V8.20401C0.233887 9.06986 0.935724 9.7717 1.80178 9.7717H12.1103C12.9762 9.7717 13.6782 9.06986 13.6782 8.20401V1.80936C13.6782 0.943536 12.9762 0.241699 12.1103 0.241699ZM12.9296 8.62641L12.6312 8.97985L8.45167 5.56882L7.8044 6.18468C7.32471 6.62519 6.58745 6.62519 6.10773 6.18468L5.46046 5.56882L1.28097 8.97985L0.982517 8.62641L4.90659 5.04168L0.95681 1.32967L1.19033 1.02026L6.95607 5.38902L12.7218 1.02026L12.9551 1.32967L9.00557 5.04168L12.9296 8.62641Z" fill="#BC13FE"/>
</svg>
