<svg width="6" height="10" viewBox="0 0 6 10" fill="none" xmlns="http://www.w3.org/2000/svg">
<path d="M0.178367 1.06421C0.120266 1.00611 0.0741782 0.937138 0.0427341 0.861226C0.0112901 0.785314 -0.00489426 0.703951 -0.00489426 0.621784C-0.00489426 0.539618 0.0112901 0.458255 0.0427341 0.382343C0.0741782 0.30643 0.120266 0.237455 0.178367 0.179354C0.236467 0.121253 0.305443 0.0751653 0.381356 0.0437214C0.457268 0.0122775 0.53863 -0.00390625 0.620797 -0.00390625C0.702964 -0.00390625 0.784326 0.0122775 0.860239 0.0437214C0.936151 0.0751653 1.00513 0.121253 1.06323 0.179354L5.43754 4.55366C5.49573 4.61171 5.5419 4.68067 5.57341 4.75659C5.60491 4.83251 5.62112 4.9139 5.62112 4.99609C5.62112 5.07829 5.60491 5.15968 5.57341 5.2356C5.5419 5.31152 5.49573 5.38048 5.43754 5.43852L1.06323 9.81283C0.945888 9.93017 0.786741 9.99609 0.620797 9.99609C0.454854 9.99609 0.295707 9.93017 0.178367 9.81283C0.0610271 9.69549 -0.00489426 9.53635 -0.00489426 9.3704C-0.00489426 9.20446 0.0610271 9.04531 0.178367 8.92797L4.1115 4.99609L0.178367 1.06421Z" fill="#C6C5C5"/>
</svg>
