<svg width="14" height="14" viewBox="0 0 14 14" fill="none" xmlns="http://www.w3.org/2000/svg">
<path d="M9.45739 0.507324H4.01039C1.64439 0.507324 0.233887 1.91782 0.233887 4.28382V9.72432C0.233887 12.0968 1.64439 13.5073 4.01039 13.5073H9.45089C11.8169 13.5073 13.2274 12.0968 13.2274 9.73082V4.28382C13.2339 1.91782 11.8234 0.507324 9.45739 0.507324ZM6.73389 9.52932C5.34289 9.52932 4.21189 8.39832 4.21189 7.00732C4.21189 5.61632 5.34289 4.48532 6.73389 4.48532C8.12489 4.48532 9.25589 5.61632 9.25589 7.00732C9.25589 8.39832 8.12489 9.52932 6.73389 9.52932ZM10.5819 3.67932C10.5494 3.75732 10.5039 3.82882 10.4454 3.89382C10.3804 3.95232 10.3089 3.99782 10.2309 4.03032C10.1529 4.06282 10.0684 4.08232 9.98389 4.08232C9.80839 4.08232 9.64589 4.01732 9.52239 3.89382C9.46389 3.82882 9.41839 3.75732 9.38589 3.67932C9.35339 3.60132 9.33389 3.51682 9.33389 3.43232C9.33389 3.34782 9.35339 3.26332 9.38589 3.18532C9.41839 3.10082 9.46389 3.03582 9.52239 2.97082C9.67189 2.82132 9.89939 2.74982 10.1074 2.79532C10.1529 2.80182 10.1919 2.81482 10.2309 2.83432C10.2699 2.84732 10.3089 2.86682 10.3479 2.89282C10.3804 2.91232 10.4129 2.94482 10.4454 2.97082C10.5039 3.03582 10.5494 3.10082 10.5819 3.18532C10.6144 3.26332 10.6339 3.34782 10.6339 3.43232C10.6339 3.51682 10.6144 3.60132 10.5819 3.67932Z" fill="#BC13FE"/>
</svg>
