<svg width="12" height="15" viewBox="0 0 12 15" fill="none" xmlns="http://www.w3.org/2000/svg">
<path fill-rule="evenodd" clip-rule="evenodd" d="M5.98389 4.44482C5.25895 4.44482 4.67139 5.03239 4.67139 5.75732C4.67139 6.48226 5.25895 7.06982 5.98389 7.06982C6.70882 7.06982 7.29638 6.48226 7.29638 5.75732C7.29638 5.03239 6.70882 4.44482 5.98389 4.44482ZM5.98389 7.94482C4.77595 7.94482 3.79639 6.9657 3.79639 5.75732C3.79639 4.54895 4.77595 3.56982 5.98389 3.56982C7.19182 3.56982 8.17138 4.54895 8.17138 5.75732C8.17138 6.9657 7.19182 7.94482 5.98389 7.94482ZM5.98389 0.507324C3.08457 0.507324 0.733887 2.85801 0.733887 5.75732C0.733887 7.9527 5.11107 14.5121 5.98389 14.5073C6.84313 14.5121 11.2339 7.92295 11.2339 5.75732C11.2339 2.85801 8.8832 0.507324 5.98389 0.507324Z" fill="#BC13FE"/>
</svg>
