<svg width="264" height="34" viewBox="0 0 264 34" fill="none" xmlns="http://www.w3.org/2000/svg">
<path fill-rule="evenodd" clip-rule="evenodd" d="M188.306 0.0565941L188.616 0.0516808C188.955 0.0470938 189.294 0.0461518 189.633 0.045633L190.342 0.0407638C190.837 0.0378721 191.333 0.0369789 191.828 0.0372648C192.461 0.0373138 193.094 0.030735 193.727 0.0224092C194.215 0.0170234 194.703 0.0160628 195.191 0.0163177C195.424 0.0157501 195.658 0.0136266 195.891 0.0098813C197.264 -0.0101007 197.717 -0.0166968 198.079 0.161681C198.258 0.249579 198.414 0.38239 198.648 0.580647C199.12 1.0931 199.482 1.68135 199.826 2.28909C199.962 2.51956 200.098 2.74983 200.234 2.97992L200.439 3.32965C200.745 3.84047 201.07 4.33719 201.397 4.83365C202.047 5.82373 202.686 6.82058 203.322 7.82074L203.594 8.24928L203.847 8.6486L204.074 9.00552C204.162 9.14955 204.207 9.22294 204.249 9.2983C204.292 9.37641 204.331 9.45665 204.411 9.61986L204.411 9.62104C204.885 9.40034 205.244 9.14431 205.631 8.78877L205.963 8.48485C206.484 7.99679 207 7.5032 207.514 7.00608C208.566 5.99113 209.627 4.98697 210.695 3.98882C210.933 3.76532 211.17 3.54165 211.408 3.31795C211.643 3.09691 211.879 2.87622 212.114 2.65556C212.429 2.36065 212.742 2.0642 213.054 1.76673L213.512 1.33363L213.919 0.946411C214.66 0.303556 215.15 0.0661976 216.131 0.0693625L216.759 0.067899L217.432 0.0739198C217.663 0.0744121 217.894 0.0747138 218.125 0.0748333C218.607 0.0755723 219.09 0.0778881 219.573 0.081463C220.193 0.0860301 220.813 0.0877747 221.433 0.0884923C221.909 0.0891596 222.385 0.0907381 222.861 0.0926562C223.09 0.093575 223.319 0.0943404 223.548 0.094952C223.866 0.0960528 224.185 0.0983904 224.503 0.100792L225.053 0.104122C225.309 0.118332 225.404 0.123608 225.479 0.165571C225.522 0.190341 225.559 0.227894 225.617 0.287614L225.617 0.287642C225.713 0.788044 225.703 1.11866 225.427 1.55238C224.808 2.29656 224.102 2.94357 223.388 3.58903C222.894 4.03711 222.41 4.49474 221.926 4.95434C221.203 5.63977 220.475 6.31773 219.742 6.99099C219.262 7.43488 218.787 7.8839 218.313 8.33367C217.59 9.01901 216.862 9.69706 216.129 10.3703C215.649 10.8142 215.174 11.2632 214.7 11.713C213.979 12.3969 213.252 13.0739 212.52 13.7453C212.203 14.0395 211.887 14.3356 211.574 14.6341L211.295 14.8994C211.114 15.0715 210.934 15.2439 210.754 15.4167C210.38 15.7729 210.021 16.0889 209.595 16.3797C209.84 17.132 210.248 17.7469 210.677 18.3924L210.677 18.3926L210.763 18.522L211.046 18.9533C211.331 19.3869 211.617 19.8199 211.903 20.2528C212.199 20.7002 212.494 21.1479 212.789 21.5956L212.82 21.6427L213.338 22.4284C213.792 23.1179 214.247 23.8077 214.7 24.4979L215.253 25.3384L215.53 25.759C216.062 26.5673 216.598 27.3726 217.139 28.1751C217.465 28.6604 217.789 29.1472 218.113 29.6343C218.265 29.8609 218.417 30.0869 218.571 30.3121C218.783 30.6229 218.991 30.9359 219.198 31.2498L219.555 31.7794C219.877 32.4634 219.89 32.847 219.805 33.5982C219.272 33.9623 219.013 33.9635 218.421 33.9662L218.313 33.9668L218 33.9701C217.66 33.9731 217.32 33.9738 216.979 33.9741L216.268 33.9773C215.772 33.9793 215.275 33.9799 214.778 33.9797C214.142 33.9796 213.507 33.984 212.871 33.9896C212.381 33.9932 211.892 33.9938 211.402 33.9936C211.168 33.994 210.934 33.9954 210.699 33.9979C210.371 34.0011 210.043 34.0002 209.715 33.9982L209.149 33.9996C208.439 33.8858 208.061 33.5338 207.63 32.9609L207.433 32.6295L207.208 32.2556L206.974 31.8582C206.806 31.5803 206.638 31.3024 206.471 31.0247L206.22 30.6088C205.893 30.0723 205.552 29.5463 205.207 29.022C204.581 28.07 203.969 27.1093 203.361 26.1456C202.684 25.0742 202 24.0116 201.27 22.9774C200.525 23.635 199.794 24.3067 199.07 24.989C198.456 25.5683 197.836 26.1386 197.205 26.6987C196.774 27.0882 196.352 27.4868 195.929 27.8855C195.315 28.4649 194.694 29.0352 194.064 29.5953C193.633 29.984 193.212 30.3818 192.79 30.7797L192.79 30.7799L192.789 30.78L192.789 30.7803L192.787 30.7821L192.787 30.7822L192.787 30.7823C190.293 33.1302 189.654 33.7316 188.921 33.8876C188.668 33.9413 188.404 33.9422 188.049 33.9434L187.433 33.9465L186.764 33.9471L186.081 33.9487C185.603 33.9497 185.126 33.95 184.648 33.9499C184.036 33.9498 183.423 33.952 182.81 33.9548C182.34 33.9566 181.87 33.9569 181.399 33.9568C181.173 33.957 180.947 33.9577 180.721 33.959C180.406 33.9606 180.09 33.9599 179.775 33.9591L179.23 33.9598C179.024 33.9404 178.918 33.9305 178.828 33.8881C178.732 33.8436 178.654 33.7632 178.493 33.5982C178.506 33.0061 178.583 32.7115 178.964 32.2605L179.435 31.8281C179.662 31.5942 179.888 31.3594 180.113 31.124C180.64 30.5835 181.182 30.0725 181.747 29.5746C182.202 29.1673 182.645 28.7483 183.087 28.3281L183.352 28.0772L183.885 27.5711C184.983 26.5308 186.088 25.4992 187.201 24.476C187.729 23.9879 188.253 23.4949 188.776 23.0019L188.777 23.0016L188.777 23.0009L188.779 22.9993L188.788 22.9909C189.277 22.5307 189.769 22.0738 190.264 21.6197C190.875 21.0585 191.478 20.4907 192.08 19.92C192.937 19.1074 193.802 18.3043 194.672 17.5061L195.556 16.6915L196.243 16.0579C196.146 15.5554 195.986 15.215 195.701 14.7956L195.458 14.4344L195.193 14.0464L194.916 13.637C194.626 13.2095 194.335 12.783 194.044 12.3567L193.508 11.5697C193.146 11.039 192.783 10.5087 192.42 9.97871C191.708 8.93991 191 7.89901 190.295 6.85537C189.743 6.03732 189.184 5.22502 188.613 4.4194L188.261 3.91515C188.037 3.59614 187.812 3.27858 187.584 2.96275C186.751 1.76674 186.751 1.76674 186.72 1.09727C186.918 0.11324 187.388 0.06571 188.306 0.0565941ZM243.813 0.0618749C244.405 0.0629347 244.998 0.0622392 245.591 0.0615437L245.886 0.0612057C247.043 0.0603326 248.199 0.0614726 249.356 0.063784C250.694 0.0664249 252.031 0.0655483 253.369 0.0629022C254.521 0.060714 255.673 0.0604006 256.825 0.0616657C257.512 0.0624179 258.199 0.0625197 258.885 0.060924C259.529 0.0595327 260.172 0.0604908 260.815 0.0632867C261.051 0.0639262 261.287 0.0637398 261.524 0.0626772C261.845 0.0613628 262.167 0.0633014 262.488 0.0654193L263.034 0.0659708C263.275 0.0992088 263.384 0.114262 263.482 0.156068C263.562 0.190563 263.635 0.243271 263.767 0.339435L263.768 0.339727L263.768 0.339947L263.768 0.340276L263.769 0.34037C264.123 0.879005 263.995 1.56253 263.879 2.18593V2.18605C263.864 2.26165 263.85 2.33636 263.838 2.40982C263.789 2.65668 263.738 2.90328 263.687 3.14964L263.606 3.54917C263.549 3.82639 263.492 4.10349 263.434 4.38047C263.347 4.80241 263.262 5.22483 263.177 5.64737C263.121 5.9178 263.066 6.1882 263.01 6.45857L262.934 6.83809C262.739 7.75688 262.501 8.69724 261.746 9.2992C261.569 9.32694 261.473 9.34207 261.375 9.35042C261.259 9.36042 261.142 9.36066 260.884 9.36119L260.34 9.3659L259.743 9.36367C259.533 9.36459 259.324 9.36573 259.114 9.36707C258.662 9.3695 258.211 9.37043 257.759 9.3702C257.042 9.36987 256.325 9.37303 255.609 9.37667C254.214 9.38327 252.818 9.38625 251.423 9.38892C249.655 9.39252 247.887 9.39798 246.118 9.40617C245.524 9.40883 244.929 9.41078 244.335 9.41104C242.256 9.27012 241.241 9.20129 240.256 9.34042C239.315 9.47324 238.4 9.79558 236.613 10.4256C236.481 10.6166 236.415 10.711 236.361 10.8115C236.308 10.9098 236.265 11.0139 236.181 11.2197L236.181 11.2202L235.997 11.6269C235.83 12.0289 235.671 12.4336 235.514 12.8394L235.905 12.8385C239.046 12.8314 242.187 12.8261 245.328 12.8228C246.847 12.8211 248.366 12.8188 249.885 12.8152C251.208 12.812 252.532 12.8099 253.855 12.8092C254.557 12.8087 255.258 12.8078 255.959 12.8054C256.618 12.8032 257.278 12.8026 257.937 12.803C258.18 12.803 258.422 12.8023 258.665 12.8011C258.995 12.7995 259.325 12.7999 259.655 12.8007L260.216 12.7998C260.647 12.8394 260.647 12.8394 260.961 13.1613C261.149 14.2859 260.883 15.4605 260.631 16.575C260.595 16.7339 260.56 16.8916 260.526 17.0478C260.45 17.3971 260.379 17.7471 260.307 18.0973C260.26 18.3221 260.211 18.5468 260.163 18.7715L260.034 19.3814C259.85 19.9544 259.635 20.2892 259.233 20.7246C258.856 20.9178 258.533 20.9129 258.14 20.907C258.071 20.906 258 20.9049 257.927 20.9048L257.615 20.9052C257.272 20.9055 256.929 20.9046 256.586 20.9038L256.576 20.9037L255.833 20.9038C255.159 20.9039 254.486 20.9029 253.812 20.9018C253.174 20.9009 252.536 20.9007 251.898 20.9006L251.701 20.9005C250.368 20.9 249.035 20.8987 247.702 20.8971C246.185 20.8953 244.668 20.8944 243.151 20.8936C240.029 20.8919 236.907 20.8891 233.786 20.8855C233.764 21.2981 233.749 21.7096 233.737 22.1226L233.717 22.4743C233.702 23.1472 233.729 23.3869 234.152 23.9361C235.181 24.7435 236.809 24.6837 238.198 24.6326C238.518 24.6209 238.825 24.6096 239.109 24.6095L239.744 24.6112C240.195 24.6124 240.646 24.6133 241.098 24.6138C241.811 24.6147 242.525 24.6174 243.238 24.6204L243.974 24.6235L244.346 24.625C246.004 24.6318 247.663 24.6371 249.321 24.6391C250.444 24.6404 251.567 24.6441 252.69 24.6503C253.283 24.6534 253.877 24.6554 254.47 24.6546C255.129 24.6537 255.789 24.6578 256.448 24.6623L257.044 24.6591L257.587 24.6651L258.059 24.6663C258.448 24.7476 258.448 24.7476 258.736 25.0539C258.951 25.4511 258.955 25.6233 258.887 26.0671L258.83 26.4519L258.762 26.8395L258.7 27.1921C258.634 27.5476 258.562 27.9013 258.488 28.2551L258.408 28.6436C258.352 28.912 258.295 29.1803 258.239 29.4484C258.153 29.8577 258.069 30.2674 257.986 30.6771C257.931 30.9393 257.876 31.2014 257.82 31.4635L257.746 31.8318C257.547 32.7581 257.345 33.3854 256.563 33.92C256.365 33.9384 256.256 33.9485 256.147 33.9542C256.013 33.9612 255.877 33.9614 255.576 33.962L254.949 33.9654L254.259 33.9642C254.017 33.9649 253.775 33.9658 253.533 33.9667C252.875 33.9689 252.217 33.969 251.559 33.9686C251.017 33.9684 250.475 33.9692 249.933 33.9699L249.907 33.97C248.606 33.9717 247.304 33.9718 246.003 33.9708C244.666 33.9699 243.328 33.9718 241.991 33.9753C240.84 33.9781 239.689 33.9791 238.538 33.9786C237.852 33.9783 237.166 33.9787 236.48 33.9809C235.832 33.983 235.185 33.9826 234.537 33.9805C234.302 33.9802 234.066 33.9806 233.831 33.9819C230.835 33.9978 227.457 33.6121 225.187 31.4006C223.685 29.7174 223.366 27.5751 223.389 25.3645C223.44 24.2934 223.61 23.2471 223.791 22.193L223.852 21.8292C224.212 19.6846 224.62 17.5494 225.045 15.4175C225.111 15.0849 225.177 14.7522 225.243 14.4194C226.159 9.77888 227.429 5.15569 231.459 2.35321C235.084 0.0363159 239.286 0.0486577 243.414 0.0607813L243.813 0.0618749ZM8.50168 0.0654165L8.82804 0.0631344C9.18817 0.061213 9.5482 0.0627279 9.90833 0.0642431L9.9106 0.0642527C10.1694 0.0635984 10.4283 0.0627388 10.6871 0.0616892C11.3909 0.0594853 12.0946 0.0603435 12.7984 0.0618722C13.4348 0.0629266 14.0713 0.0622288 14.7077 0.061531L15.0135 0.061203C16.2557 0.0603239 17.498 0.0614832 18.7402 0.0637812C20.1705 0.0663969 21.6008 0.0655663 23.0311 0.0628995C24.2621 0.0606969 25.4932 0.0604057 26.7243 0.061663C27.4581 0.0624107 28.1919 0.0625299 28.9257 0.0609212C29.6179 0.0595099 30.3101 0.0605242 31.0024 0.063284C31.2543 0.063914 31.5062 0.0637536 31.7582 0.0626744C35.097 0.0497093 38.7365 0.541422 41.2619 2.98306C43.0517 4.92704 43.4018 7.38618 43.3414 9.96487C43.2188 12.1622 42.7578 14.3374 42.3013 16.492L42.3013 16.4921L42.3013 16.4922L42.3012 16.4925L42.3011 16.4927L42.3011 16.493L42.301 16.4933L42.301 16.4936C42.2224 16.8644 42.144 17.2345 42.0674 17.6041C41.9946 17.9586 41.9237 18.3134 41.8541 18.6685C41.023 22.9049 39.8918 26.8149 36.8047 29.897L36.493 30.2208C33.3101 33.3211 28.6428 33.945 24.4587 33.9434L23.6704 33.945C22.9603 33.9465 22.2503 33.9468 21.5403 33.947C21.0966 33.9471 20.653 33.9474 20.2094 33.9478C18.6619 33.9493 17.1145 33.95 15.567 33.9499C14.1237 33.9498 12.6804 33.9515 11.2371 33.954C9.99739 33.9561 8.75766 33.957 7.51792 33.9569C6.77763 33.9568 6.03736 33.9573 5.29708 33.959C4.60225 33.9605 3.90745 33.9606 3.21262 33.9594C2.95717 33.9592 2.70171 33.9596 2.44626 33.9606C2.09871 33.9618 1.75121 33.9611 1.40366 33.9598L0.813362 33.9601C0.586644 33.94 0.473707 33.93 0.377738 33.8843C0.282492 33.839 0.203959 33.7585 0.0474969 33.5983L0.0474518 33.5982L0.0474443 33.5982C-0.104621 32.4601 0.137062 31.3294 0.37385 30.2216L0.387457 30.1579L0.497584 29.6233C0.618064 29.0403 0.740794 28.4579 0.863535 27.8755C0.949335 27.4625 1.03499 27.0495 1.12051 26.6365C1.32525 25.6489 1.53162 24.6617 1.7386 23.6746C1.97574 22.5434 2.2113 21.4118 2.4467 20.2802L2.79854 18.5896L2.86854 18.2534C3.03105 17.4729 3.19392 16.6925 3.35696 15.9121C3.84104 13.5948 4.32225 11.2768 4.79444 8.95686C4.87393 8.56639 4.9536 8.17595 5.03334 7.78554L5.1823 7.05605L5.25341 6.70782C5.36566 6.15775 5.47746 5.60759 5.58832 5.05723C5.7068 4.47014 5.82682 3.88341 5.94723 3.29673L6.04634 2.79828C6.29283 1.60875 6.37713 1.20194 6.58941 0.879365C6.69974 0.711712 6.84465 0.56681 7.06486 0.346599C7.53361 0.0645603 7.88464 0.0648932 8.40557 0.0653872L8.50168 0.0654165ZM14.9702 9.46011C14.5022 10.5977 14.2653 11.8307 14.0314 13.0479C13.978 13.326 13.9247 13.6034 13.8688 13.8785L13.6912 14.7444C13.5678 15.3466 13.445 15.9489 13.3225 16.5513C13.1656 17.3233 13.0074 18.095 12.8487 18.8666C12.7266 19.4614 12.605 20.0563 12.4837 20.6512C12.4255 20.9359 12.3672 21.2206 12.3087 21.5052C12.2273 21.9021 12.1467 22.2992 12.0663 22.6963L11.9928 23.0518C11.8866 23.5807 11.8286 24.0432 11.8286 24.5866C12.3731 24.7726 12.8748 24.7718 13.4355 24.771L13.5197 24.7709L13.8962 24.7726C14.3084 24.7741 14.7206 24.7744 15.1329 24.7746L15.998 24.7762C16.6045 24.7772 17.211 24.7775 17.8176 24.7774C18.587 24.7774 19.3563 24.7795 20.1257 24.7823C20.7229 24.7841 21.3201 24.7845 21.9173 24.7844C22.2004 24.7846 22.4835 24.7853 22.7666 24.7865C24.1919 24.7923 25.6071 24.7659 27.0266 24.6246L27.3666 24.5949C28.4227 24.474 29.33 24.0833 30.0796 23.2993C31.1737 21.8573 31.5193 20.0188 31.8513 18.2531L31.8513 18.253L31.8513 18.253L31.8513 18.2529L31.8515 18.2523L31.8516 18.2513C31.8891 18.0521 31.9264 17.8537 31.9646 17.657C32.0187 17.3861 32.073 17.1153 32.1275 16.8445C32.593 15.1259 32.8197 14.2886 32.8454 13.4453C32.8698 12.6442 32.7127 11.8376 32.4064 10.2647C30.7817 9.15129 28.6202 9.20043 26.6486 9.24526C26.3067 9.25303 25.9705 9.26068 25.6439 9.2621C25.3492 9.2623 25.0546 9.26237 24.76 9.26233C24.1484 9.26258 23.5368 9.26389 22.9252 9.26607C22.141 9.26883 21.3568 9.26942 20.5726 9.2693C19.9669 9.26934 19.3612 9.27022 18.7555 9.27139C18.4661 9.2719 18.1766 9.27222 17.8872 9.27234C17.4851 9.27269 17.0829 9.27409 16.6808 9.27582L16.3195 9.27559C15.8273 9.27868 15.4408 9.29942 14.9702 9.46011ZM143.122 0.0820034L142.592 0.0850776C141.044 0.0876463 140.778 1.15938 140.492 2.51899L140.389 3.03142C140.27 3.60298 140.152 4.1746 140.035 4.74664C139.951 5.15795 139.867 5.56915 139.782 5.98024C139.582 6.95234 139.381 7.92455 139.183 8.89711C138.955 10.0104 138.727 11.1234 138.497 12.2362C138.319 13.1017 138.14 13.9672 137.962 14.8329L137.77 15.7706L137.75 15.8691C137.346 17.8278 136.943 19.7865 136.583 21.7542L136.499 22.2187C136.302 23.2965 136.166 24.3275 136.175 25.4268L136.189 25.8841C136.209 28.029 136.577 29.9101 138.087 31.5119C139.046 32.379 139.672 32.945 140.399 33.3133C141.764 34.0057 143.484 33.9993 148.437 33.9809C148.995 33.9787 149.552 33.9783 150.11 33.9786C151.049 33.9791 151.988 33.9781 152.927 33.9753C154.013 33.9718 155.099 33.9699 156.185 33.9708C157.244 33.9718 158.304 33.9717 159.364 33.97L159.395 33.9699C159.833 33.9692 160.271 33.9684 160.709 33.9686C161.243 33.969 161.776 33.9686 162.309 33.9667L162.905 33.9642C165.946 33.9709 168.882 33.4307 171.556 31.8934C174.764 29.9101 176.515 26.468 177.409 22.8344L177.522 22.3608C177.994 20.4075 178.414 18.4441 178.819 16.4754C178.9 16.0833 178.981 15.6912 179.062 15.2992C179.254 14.3663 179.447 13.4332 179.638 12.4999C179.835 11.5396 180.033 10.5795 180.233 9.61962C180.407 8.78003 180.58 7.94029 180.753 7.10037L181 5.89975C181.118 5.32987 181.237 4.75999 181.354 4.1897L181.46 3.66572C181.494 3.50642 181.534 3.33661 181.576 3.15986L181.576 3.15973C181.798 2.22214 182.067 1.08909 181.608 0.291228C181.475 0.215091 181.403 0.174192 181.327 0.14636C181.238 0.114055 181.143 0.0993523 180.938 0.067585L180.479 0.0693627L179.958 0.0678993L179.395 0.0739201C179.005 0.0745389 178.614 0.0753838 178.223 0.0764344C177.605 0.0815081 176.988 0.0864999 176.37 0.0880635C175.967 0.0886828 175.564 0.0897334 175.161 0.0912556L174.585 0.0940351L174.021 0.0961075L173.502 0.100793C173.458 0.101112 173.416 0.101191 173.374 0.101269C172.996 0.10198 172.728 0.102483 172.367 0.287643C171.764 0.888255 171.61 1.46333 171.445 2.27882L171.357 2.74746L171.156 3.75413C171.026 4.42143 170.893 5.0879 170.755 5.75347C170.655 6.23548 170.555 6.71751 170.455 7.19974C170.2 8.44404 169.943 9.68805 169.686 10.932L169.662 11.0463L169.662 11.0467L169.662 11.0471L169.662 11.0475L169.662 11.0479C169.473 11.9618 169.284 12.8758 169.096 13.79C168.902 14.7382 168.707 15.6864 168.511 16.6341C168.436 16.9946 168.361 17.355 168.287 17.7155C168.182 18.2272 168.078 18.7389 167.972 19.2502L167.873 19.7228C167.67 20.7322 167.408 21.6668 167.024 22.6204L166.869 22.9774L166.869 22.9776L166.868 22.9786L166.868 22.9791C166.797 23.1642 166.763 23.2521 166.721 23.3359C166.684 23.4115 166.639 23.4837 166.555 23.6208L166.555 23.621L166.554 23.6211L166.083 23.782C165.154 24.1145 164.312 24.3202 163.326 24.3302L162.9 24.3273C162.417 24.33 161.934 24.3318 161.451 24.3306C161.107 24.3295 160.762 24.3291 160.417 24.3294C159.695 24.3307 158.973 24.3312 158.251 24.3295C157.316 24.3266 156.381 24.325 155.446 24.3277C154.714 24.33 153.982 24.331 153.25 24.3303C152.9 24.3297 152.55 24.3293 152.201 24.3289C151.701 24.3306 151.201 24.3319 150.701 24.3298L150.239 24.3273C149.704 24.331 149.179 24.3267 148.647 24.2648L148.593 24.252C147.845 24.0764 147.355 23.9615 146.9 23.2892C146.826 22.3889 146.788 21.9342 146.823 21.4849C146.858 21.0266 146.967 20.5739 147.188 19.6594L147.188 19.659L147.298 19.1462L147.536 18.0102C147.688 17.2909 147.84 16.5716 147.991 15.8519C148.361 14.0808 148.733 12.3102 149.106 10.5399C149.315 9.5504 149.523 8.56078 149.73 7.57083C149.817 7.15121 149.905 6.73165 149.993 6.31211L149.999 6.28312C150.124 5.69294 150.25 5.10278 150.373 4.51213L150.488 3.95801L150.518 3.82011C150.757 2.71463 151.001 1.58389 150.846 0.448563C150.676 0.273729 150.598 0.19387 150.503 0.150842C150.423 0.114662 150.332 0.104521 150.164 0.0858536L149.696 0.0850776L149.167 0.0820034L148.594 0.0839776C147.988 0.0830143 147.382 0.0827815 146.776 0.0847633C146.46 0.0858651 146.144 0.0864918 145.827 0.0858634C145.312 0.0840658 144.797 0.0827692 144.282 0.0830445L143.695 0.0839776L143.122 0.0820034ZM105.894 0.0820026L105.363 0.0850769C103.815 0.0876455 103.55 1.15938 103.264 2.51899L103.161 3.03142C103.042 3.60298 102.923 4.1746 102.807 4.74664C102.723 5.15795 102.639 5.56915 102.554 5.98024C102.353 6.95233 102.153 7.92455 101.954 8.89711C101.727 10.0104 101.498 11.1234 101.269 12.2362C101.09 13.1017 100.912 13.9672 100.734 14.8329L100.541 15.7706L100.521 15.8691L100.521 15.8699L100.521 15.8707C100.118 17.8289 99.7144 19.787 99.3548 21.7542L99.271 22.2187C99.074 23.2965 98.9372 24.3275 98.9463 25.4268L98.9601 25.8841C98.9803 28.029 99.3487 29.9101 100.859 31.5119C103.619 34.0071 103.619 34.0071 111.809 33.9809C112.456 33.9787 113.102 33.9783 113.749 33.9786C114.834 33.9791 115.919 33.9781 117.004 33.9753C118.264 33.9718 119.524 33.9699 120.784 33.9708C122.011 33.9718 123.238 33.9717 124.465 33.97L124.483 33.9699C124.996 33.9692 125.509 33.9684 126.022 33.9686C126.642 33.969 127.262 33.9689 127.882 33.9667C128.11 33.9658 128.338 33.9649 128.566 33.9642L129.216 33.9655L129.807 33.962C130.09 33.9614 130.217 33.9612 130.344 33.9543C130.448 33.9486 130.552 33.9385 130.74 33.92C131.536 33.3764 131.725 32.5725 131.923 31.6568L131.998 31.2925C132.053 31.0317 132.108 30.7708 132.163 30.5099C132.246 30.1033 132.33 29.6969 132.416 29.2908C132.638 28.2481 132.844 27.2034 133.034 26.1541L133.095 25.7257C133.121 25.5421 133.133 25.4555 133.132 25.3691C133.131 25.2921 133.119 25.2152 133.096 25.0698L133.096 25.0694C132.771 24.6543 132.582 24.4486 132.066 24.3454L131.603 24.3455L131.069 24.3408L130.487 24.3455L130.267 24.3446C129.807 24.3425 129.348 24.3404 128.888 24.3414C128.193 24.3439 127.498 24.3442 126.803 24.3415C125.452 24.3359 124.101 24.3348 122.749 24.3351C121.014 24.3355 119.279 24.3345 117.544 24.3287C116.845 24.3261 116.146 24.3241 115.447 24.326C115.112 24.3269 114.778 24.3275 114.443 24.327L113.501 24.3242C112.804 24.3287 112.114 24.3298 111.419 24.2648C110.628 24.0923 110.141 23.9833 109.671 23.2892C109.597 22.3889 109.56 21.9342 109.594 21.4849C109.629 21.0266 109.738 20.5739 109.959 19.6595L109.96 19.6591L109.96 19.659L110.069 19.1462L110.307 18.0102C110.46 17.2909 110.612 16.5716 110.762 15.8519C111.132 14.0808 111.504 12.3102 111.878 10.5399C112.086 9.5504 112.295 8.56078 112.501 7.57083C112.589 7.15121 112.676 6.73165 112.764 6.31211L112.77 6.28297C112.896 5.69284 113.021 5.10273 113.145 4.51213L113.26 3.95801L113.29 3.82L113.29 3.81992C113.529 2.71451 113.773 1.58383 113.618 0.448563C113.447 0.273728 113.369 0.19387 113.275 0.150841C113.195 0.114661 113.103 0.10452 112.935 0.0858528L112.468 0.0850769L111.939 0.0820026L111.365 0.0839768C110.759 0.0830135 110.153 0.0827807 109.548 0.0847626C109.231 0.0858643 108.915 0.0864911 108.599 0.0858626C108.084 0.0840651 107.569 0.0827684 107.054 0.0830438L106.466 0.0839768L105.894 0.0820026ZM67.9775 0.0850769L68.508 0.0820026L69.0807 0.0839768L69.6681 0.0830438C70.1832 0.0827684 70.6983 0.0840651 71.2133 0.0858626C71.5296 0.0864911 71.8458 0.0858643 72.162 0.0847626C72.7679 0.0827807 73.3738 0.0830135 73.9797 0.0839768L74.5534 0.0820026L75.0824 0.0850769L75.5496 0.0858528C75.7179 0.10452 75.8094 0.114661 75.889 0.150841C75.9837 0.19387 76.0616 0.273728 76.2323 0.448563C76.3874 1.58383 76.143 2.71451 75.9041 3.81992L75.9041 3.82L75.8743 3.95801L75.759 4.51213C75.6357 5.10273 75.5103 5.69284 75.3849 6.28297L75.3788 6.31211C75.2909 6.73165 75.2032 7.15121 75.1157 7.57083C74.9091 8.56078 74.7009 9.5504 74.4921 10.5399C74.1185 12.3102 73.7466 14.0808 73.3765 15.8519C73.226 16.5716 73.0741 17.2909 72.9218 18.0102L72.6835 19.1462L72.574 19.659L72.574 19.6591C72.3529 20.5738 72.2435 21.0265 72.2086 21.4849C72.1744 21.9342 72.2117 22.3889 72.2856 23.2892C72.7557 23.9833 73.2429 24.0923 74.0331 24.2648C74.7281 24.3298 75.4184 24.3287 76.1159 24.3242L77.0575 24.327C77.3922 24.3275 77.7269 24.3269 78.0616 24.326C78.7607 24.3241 79.4597 24.3261 80.1588 24.3287C81.8938 24.3345 83.6288 24.3355 85.3639 24.3351C86.7151 24.3348 88.0664 24.3359 89.4176 24.3415C90.1125 24.3442 90.8074 24.3439 91.5023 24.3414C91.9621 24.3404 92.4219 24.3425 92.8816 24.3446L93.101 24.3455L93.6839 24.3408L94.217 24.3455L94.68 24.3454C95.1967 24.4486 95.3855 24.6543 95.7105 25.0694L95.7105 25.0695C95.7333 25.2151 95.7453 25.292 95.7465 25.3691C95.7478 25.4555 95.7355 25.5421 95.7093 25.7256L95.7092 25.7257L95.6483 26.1541C95.4584 27.2034 95.2523 28.2481 95.0305 29.2908C94.9445 29.6969 94.8608 30.1033 94.7772 30.5099L94.6749 30.9951L94.6121 31.2925L94.5377 31.6568C94.3398 32.5725 94.1503 33.3764 93.3542 33.92C93.166 33.9385 93.0624 33.9486 92.9586 33.9543C92.8316 33.9612 92.7043 33.9614 92.4211 33.962H92.421L91.83 33.9655L91.1802 33.9642C90.9523 33.9649 90.7244 33.9658 90.4965 33.9667C89.8765 33.9689 89.2565 33.969 88.6365 33.9686C88.1175 33.9684 87.5985 33.9692 87.0795 33.97C85.8525 33.9717 84.6255 33.9718 83.3985 33.9708C82.1383 33.9699 80.8782 33.9718 79.6181 33.9753C78.5331 33.9781 77.4481 33.9791 76.363 33.9786C75.7165 33.9783 75.07 33.9787 74.4235 33.9809C66.2331 34.0071 66.2331 34.0071 63.473 31.5119C61.9632 29.9101 61.5947 28.029 61.5746 25.8841L61.5607 25.4268C61.5517 24.3275 61.6885 23.2965 61.8855 22.2187L61.9693 21.7542C62.3289 19.7868 62.7321 17.8284 63.1354 15.8699L63.1354 15.8695L63.1558 15.7706L63.3484 14.8329C63.5263 13.9672 63.7045 13.1017 63.8832 12.2362C64.1129 11.1234 64.3413 10.0104 64.5686 8.89711C64.7673 7.92455 64.9676 6.95233 65.1684 5.98024C65.2532 5.56915 65.3374 5.15795 65.4211 4.74664C65.5377 4.1746 65.6561 3.60298 65.775 3.03142L65.8782 2.51899C66.1643 1.15938 66.4299 0.0876455 67.9775 0.0850769ZM52.9467 0.059639L52.4273 0.0642503C51.9206 0.065542 51.6527 0.0752895 51.2183 0.346669C50.9978 0.556451 50.8518 0.695332 50.7405 0.85796C50.5225 1.17651 50.4376 1.58618 50.1864 2.79828L50.0873 3.29673C49.9669 3.8834 49.8469 4.47014 49.7284 5.05723C49.6175 5.60759 49.5057 6.15775 49.3935 6.70782L49.3224 7.05605L49.1734 7.78554C49.0937 8.17595 49.014 8.56639 48.9345 8.95685C48.4623 11.2768 47.9811 13.5948 47.497 15.9121C47.334 16.6925 47.1711 17.4729 47.0086 18.2534L46.9386 18.5896L46.5868 20.2802C46.3514 21.4118 46.1158 22.5434 45.8787 23.6746C45.6717 24.6617 45.4653 25.6489 45.2606 26.6365C45.1751 27.0495 45.0894 27.4625 45.0036 27.8755C44.8809 28.4579 44.7581 29.0403 44.6377 29.6233L44.5275 30.1579L44.5139 30.2216C44.2771 31.3294 44.0355 32.4601 44.1875 33.5982C44.3582 33.773 44.4361 33.8529 44.5308 33.8959C44.6105 33.9321 44.7019 33.9422 44.8702 33.9609L45.3374 33.9617L45.8664 33.9648L46.4401 33.9628C47.046 33.9637 47.6519 33.964 48.2578 33.962C48.574 33.9609 48.8902 33.9603 49.2065 33.9609C49.7215 33.9627 50.2366 33.964 50.7517 33.9637L51.3391 33.9628L51.9118 33.9648L52.4423 33.9617C52.6969 33.9613 52.8128 33.9611 52.9284 33.9544C53.025 33.9488 53.1214 33.9386 53.2983 33.92C53.9374 33.4835 54.167 33.0535 54.3805 32.3017L54.4965 31.7398C54.5667 31.4064 54.6363 31.073 54.7043 30.7391C54.7544 30.4924 54.805 30.2459 54.8562 29.9995C54.9982 29.3187 55.1392 28.6377 55.2787 27.9563C55.429 27.2224 55.5804 26.4887 55.7322 25.7552C55.9615 24.6479 56.1903 23.5405 56.4181 22.4329C56.8362 20.3997 57.2567 18.367 57.6799 16.3349C57.9732 14.9264 58.266 13.5178 58.5582 12.109L58.6321 11.7529C58.8128 10.8812 58.9936 10.0094 59.1751 9.13792C59.3742 8.18306 59.5729 7.22814 59.7702 6.27291L59.9902 5.20766C60.0944 4.70967 60.1986 4.21169 60.3012 3.71336L60.3944 3.25944C60.424 3.1195 60.4588 2.97256 60.4947 2.82101C60.6922 1.9877 60.9227 1.01521 60.4978 0.301599C60.3632 0.219819 60.2915 0.176282 60.2144 0.146835C60.1267 0.113312 60.032 0.0980501 59.8295 0.0654142L59.3733 0.0642503L58.8554 0.059639L58.2961 0.0626003C57.9067 0.0616519 57.5174 0.0610334 57.1281 0.0607145C56.513 0.0638021 55.8981 0.0663642 55.2831 0.0637789C54.8821 0.0617625 54.4811 0.0608722 54.0801 0.0612006L53.5051 0.0626003L52.9467 0.059639Z" fill="url(#paint0_linear_0_460)"/>
<defs>
<linearGradient id="paint0_linear_0_460" x1="-39" y1="1.04131e-06" x2="71.6736" y2="128.979" gradientUnits="userSpaceOnUse">
<stop offset="0.550538" stop-color="#BC13FE"/>
<stop offset="0.795538" stop-color="#FF00B9"/>
</linearGradient>
</defs>
</svg>
