<svg width="35" height="31" viewBox="0 0 35 31" fill="none" xmlns="http://www.w3.org/2000/svg">
<path d="M30.1964 11.1364H11.4119C11.3539 11.1364 11.2968 11.1395 11.2405 11.1457L7.62308 1.04877C7.39754 0.419259 6.80656 0 6.14474 0H1.57246C0.704018 0 0 0.712274 0 1.59091C0 2.46954 0.704018 3.18182 1.57246 3.18182H5.04213L11.506 21.224C11.7315 21.8535 12.3225 22.2727 12.9843 22.2727H28.7089C29.3858 22.2727 29.9867 21.8345 30.2007 21.1849L34.9181 6.86673C35.2575 5.83656 34.4996 4.77273 33.4263 4.77273H19.2742C18.4057 4.77273 17.7017 5.485 17.7017 6.36364C17.7017 7.24227 18.4057 7.95455 19.2742 7.95455H31.2447L30.1964 11.1364ZM25.564 30.2273C27.3009 30.2273 28.7089 28.8027 28.7089 27.0455C28.7089 25.2882 27.3009 23.8636 25.564 23.8636C23.8271 23.8636 22.4191 25.2882 22.4191 27.0455C22.4191 28.8027 23.8271 30.2273 25.564 30.2273ZM14.5568 30.2273C16.2937 30.2273 17.7017 28.8027 17.7017 27.0455C17.7017 25.2882 16.2937 23.8636 14.5568 23.8636C12.8199 23.8636 11.4119 25.2882 11.4119 27.0455C11.4119 28.8027 12.8199 30.2273 14.5568 30.2273Z" fill="#5E5E5E"/>
</svg>
