<svg width="24" height="22" viewBox="0 0 24 22" fill="none" xmlns="http://www.w3.org/2000/svg">
<path d="M20.7061 8.31H7.82528C7.78556 8.31 7.74634 8.31214 7.70774 8.31632L5.22725 1.48718C5.0726 1.0614 4.66735 0.777832 4.21353 0.777832H1.07826C0.482754 0.777832 0 1.25958 0 1.85386C0 2.44813 0.482754 2.92988 1.07826 2.92988H3.45746L7.88982 15.1328C8.04447 15.5586 8.44972 15.8422 8.90354 15.8422H19.6861C20.1503 15.8422 20.5623 15.5458 20.7091 15.1064L23.9438 5.42219C24.1766 4.72544 23.6569 4.0059 22.9209 4.0059H13.2166C12.6211 4.0059 12.1383 4.48765 12.1383 5.08193C12.1383 5.6762 12.6211 6.15795 13.2166 6.15795H21.4249L20.7061 8.31ZM17.5296 21.2223C18.7206 21.2223 19.6861 20.2588 19.6861 19.0702C19.6861 17.8817 18.7206 16.9182 17.5296 16.9182C16.3386 16.9182 15.3731 17.8817 15.3731 19.0702C15.3731 20.2588 16.3386 21.2223 17.5296 21.2223ZM9.9818 21.2223C11.1728 21.2223 12.1383 20.2588 12.1383 19.0702C12.1383 17.8817 11.1728 16.9182 9.9818 16.9182C8.79079 16.9182 7.82528 17.8817 7.82528 19.0702C7.82528 20.2588 8.79079 21.2223 9.9818 21.2223Z" fill="#BC13FE"/>
</svg>
