<svg width="85" height="17" viewBox="0 0 85 17" fill="none" xmlns="http://www.w3.org/2000/svg">
<path d="M7.69537 0.896043C7.78418 0.617598 8.17818 0.617597 8.26699 0.896042L9.70646 5.40886C9.74613 5.53325 9.8617 5.61769 9.99227 5.61769H14.6621C14.9514 5.61769 15.0731 5.98675 14.8406 6.15883L11.0531 8.96188C10.9499 9.03826 10.9067 9.17186 10.9458 9.29419L12.3902 13.8225C12.4787 14.0999 12.1599 14.328 11.9259 14.1548L8.15965 11.3675C8.05361 11.289 7.90875 11.289 7.80271 11.3675L4.03646 14.1548C3.80244 14.328 3.48371 14.0999 3.57218 13.8225L5.01659 9.29419C5.05561 9.17186 5.01246 9.03826 4.90925 8.96188L1.12181 6.15883C0.889292 5.98675 1.01101 5.61769 1.30028 5.61769H5.97009C6.10066 5.61769 6.21623 5.53325 6.25591 5.40886L7.69537 0.896043Z" fill="#FFD633"/>
<path d="M24.7979 0.896043C24.8867 0.617598 25.2807 0.617597 25.3695 0.896042L26.809 5.40886C26.8487 5.53325 26.9642 5.61769 27.0948 5.61769H31.7646C32.0539 5.61769 32.1756 5.98675 31.9431 6.15883L28.1557 8.96188C28.0524 9.03826 28.0093 9.17186 28.0483 9.29419L29.4927 13.8225C29.5812 14.0999 29.2625 14.328 29.0284 14.1548L25.2622 11.3675C25.1561 11.289 25.0113 11.289 24.9053 11.3675L21.139 14.1548C20.905 14.328 20.5862 14.0999 20.6747 13.8225L22.1191 9.29419C22.1582 9.17186 22.115 9.03826 22.0118 8.96188L18.2244 6.15883C17.9918 5.98675 18.1135 5.61769 18.4028 5.61769H23.0726C23.2032 5.61769 23.3188 5.53325 23.3584 5.40886L24.7979 0.896043Z" fill="#FFD633"/>
<path d="M41.9004 0.896043C41.9893 0.617598 42.3833 0.617597 42.4721 0.896042L43.9115 5.40886C43.9512 5.53325 44.0668 5.61769 44.1973 5.61769H48.8672C49.1564 5.61769 49.2781 5.98675 49.0456 6.15883L45.2582 8.96188C45.155 9.03826 45.1118 9.17186 45.1508 9.29419L46.5953 13.8225C46.6837 14.0999 46.365 14.328 46.131 14.1548L42.3647 11.3675C42.2587 11.289 42.1138 11.289 42.0078 11.3675L38.2415 14.1548C38.0075 14.328 37.6888 14.0999 37.7773 13.8225L39.2217 9.29419C39.2607 9.17186 39.2175 9.03826 39.1143 8.96188L35.3269 6.15883C35.0944 5.98675 35.2161 5.61769 35.5054 5.61769H40.1752C40.3057 5.61769 40.4213 5.53325 40.461 5.40886L41.9004 0.896043Z" fill="#FFD633"/>
<path d="M59.003 0.896043C59.0918 0.617598 59.4858 0.617597 59.5746 0.896042L61.014 5.40886C61.0537 5.53325 61.1693 5.61769 61.2999 5.61769H65.9697C66.2589 5.61769 66.3807 5.98675 66.1481 6.15883L62.3607 8.96188C62.2575 9.03826 62.2143 9.17186 62.2534 9.29419L63.6978 13.8225C63.7862 14.0999 63.4675 14.328 63.2335 14.1548L59.4672 11.3675C59.3612 11.289 59.2163 11.289 59.1103 11.3675L55.344 14.1548C55.11 14.328 54.7913 14.0999 54.8798 13.8225L56.3242 9.29419C56.3632 9.17186 56.32 9.03826 56.2168 8.96188L52.4294 6.15883C52.1969 5.98675 52.3186 5.61769 52.6079 5.61769H57.2777C57.4082 5.61769 57.5238 5.53325 57.5635 5.40886L59.003 0.896043Z" fill="#FFD633"/>
<path d="M76.1055 0.896043C76.1943 0.617598 76.5883 0.617597 76.6771 0.896042L78.1166 5.40886C78.1563 5.53325 78.2718 5.61769 78.4024 5.61769H83.0722C83.3615 5.61769 83.4832 5.98675 83.2507 6.15883L79.4632 8.96188C79.36 9.03826 79.3169 9.17186 79.3559 9.29419L80.8003 13.8225C80.8888 14.0999 80.57 14.328 80.336 14.1548L76.5698 11.3675C76.4637 11.289 76.3189 11.289 76.2128 11.3675L72.4466 14.1548C72.2126 14.328 71.8938 14.0999 71.9823 13.8225L73.4267 9.29419C73.4657 9.17186 73.4226 9.03826 73.3194 8.96188L69.5319 6.15883C69.2994 5.98675 69.4211 5.61769 69.7104 5.61769H74.3802C74.5108 5.61769 74.6264 5.53325 74.666 5.40886L76.1055 0.896043Z" fill="#FFD633"/>
</svg>
