<svg width="14" height="16" viewBox="0 0 14 16" fill="none" xmlns="http://www.w3.org/2000/svg">
<path d="M3.5 6V4C3.5 3.54037 3.59053 3.08525 3.76642 2.66061C3.94231 2.23597 4.20012 1.85013 4.52513 1.52513C4.85013 1.20012 5.23597 0.942313 5.66061 0.766422C6.08525 0.59053 6.54037 0.5 7 0.5C7.45963 0.5 7.91475 0.59053 8.33939 0.766422C8.76403 0.942313 9.14987 1.20012 9.47487 1.52513C9.79988 1.85013 10.0577 2.23597 10.2336 2.66061C10.4095 3.08525 10.5 3.54037 10.5 4V6C10.5 7.19 9.907 8.24 9 8.873V9.823C9.00013 10.0228 9.06011 10.218 9.17223 10.3834C9.28434 10.5488 9.44344 10.6769 9.629 10.751L11.215 11.386C12.0372 11.7148 12.742 12.2825 13.2385 13.0159C13.7349 13.7492 14.0001 14.6145 14 15.5H6.25002e-08C-0.000148655 14.6145 0.265107 13.7492 0.761532 13.0159C1.25796 12.2825 1.96277 11.7148 2.785 11.386L4.371 10.751C4.55656 10.6769 4.71566 10.5488 4.82777 10.3834C4.93989 10.218 4.99987 10.0228 5 9.823V8.873C4.53688 8.55052 4.1586 8.12084 3.89742 7.62059C3.63623 7.12033 3.49988 6.56433 3.5 6Z" fill="white"/>
</svg>
