<svg width="26" height="15" viewBox="0 0 26 15" fill="none" xmlns="http://www.w3.org/2000/svg">
<path d="M3.1703 13.9404C3.02505 14.0856 2.85261 14.2009 2.66283 14.2795C2.47305 14.3581 2.26964 14.3985 2.06423 14.3985C1.85881 14.3985 1.6554 14.3581 1.46562 14.2795C1.27584 14.2009 1.1034 14.0856 0.958151 13.9404C0.812899 13.7951 0.697679 13.6227 0.619069 13.4329C0.540459 13.2431 0.5 13.0397 0.5 12.8343C0.5 12.6289 0.540459 12.4255 0.619069 12.2357C0.697679 12.0459 0.812899 11.8735 0.958151 11.7282L11.8939 0.792467C12.039 0.64698 12.2114 0.531552 12.4012 0.452794C12.591 0.374036 12.7945 0.333496 13 0.333496C13.2055 0.333496 13.409 0.374036 13.5988 0.452794C13.7886 0.531552 13.961 0.64698 14.1061 0.792467L25.0418 11.7282C25.3352 12.0216 25.5 12.4195 25.5 12.8343C25.5 13.2492 25.3352 13.647 25.0418 13.9404C24.7485 14.2337 24.3506 14.3985 23.9358 14.3985C23.5209 14.3985 23.123 14.2337 22.8297 13.9404L13 4.10757L3.1703 13.9404Z" fill="white"/>
</svg>
